<svg width="76" height="60" viewBox="0 0 76 60" fill="none" xmlns="http://www.w3.org/2000/svg">
<rect x="0.0422363" y="0.739502" width="75" height="59" fill="white"/>
<path d="M35.2297 37.7395C35.5404 37.7395 35.7922 37.4877 35.7922 37.177C35.7922 36.8663 35.5404 36.6145 35.2297 36.6145C34.9191 36.6145 34.6672 36.8663 34.6672 37.177C34.6672 37.4877 34.9191 37.7395 35.2297 37.7395Z" fill="#22262A" stroke="#22262A" stroke-width="2" stroke-miterlimit="10" stroke-linecap="round" stroke-linejoin="round"/>
<path d="M43.1047 37.7395C43.4154 37.7395 43.6672 37.4877 43.6672 37.177C43.6672 36.8663 43.4154 36.6145 43.1047 36.6145C42.7941 36.6145 42.5422 36.8663 42.5422 37.177C42.5422 37.4877 42.7941 37.7395 43.1047 37.7395Z" fill="#22262A" stroke="#22262A" stroke-width="2" stroke-miterlimit="10" stroke-linecap="round" stroke-linejoin="round"/>
<path d="M29.0422 19.7395H31.2922L33.5422 33.2395H44.7922L47.0422 23.1145H32.4172" stroke="#22262A" stroke-width="2" stroke-linecap="round" stroke-linejoin="round"/>
</svg>
